<svg id="Layer_1" data-name="Layer 1" xmlns="http://www.w3.org/2000/svg" xmlns:xlink="http://www.w3.org/1999/xlink" viewBox="0 0 156 67.65"><defs><style>.cls-1{fill:url(#linear-gradient);}.cls-2{fill:url(#linear-gradient-2);}.cls-3{fill:url(#linear-gradient-3);}.cls-4{fill:url(#linear-gradient-4);}</style><linearGradient id="linear-gradient" x1="32.64" y1="17.49" x2="2.11" y2="48.01" gradientUnits="userSpaceOnUse"><stop offset="0" stop-color="#fc5c7d"/><stop offset="0.12" stop-color="#df6496"/><stop offset="0.31" stop-color="#b56eba"/><stop offset="0.5" stop-color="#9477d6"/><stop offset="0.69" stop-color="#7d7deb"/><stop offset="0.85" stop-color="#6f81f7"/><stop offset="1" stop-color="#6a82fb"/></linearGradient><linearGradient id="linear-gradient-2" x1="72.62" y1="15.07" x2="30.05" y2="57.64" xlink:href="#linear-gradient"/><linearGradient id="linear-gradient-3" x1="120.33" y1="17.63" x2="91.14" y2="46.82" xlink:href="#linear-gradient"/><linearGradient id="linear-gradient-4" x1="157.46" y1="12.71" x2="128.78" y2="41.4" xlink:href="#linear-gradient"/></defs><title>box</title><path class="cls-1" d="M17.47,52.42a28.33,28.33,0,0,1-9.63-1.65A20.66,20.66,0,0,1,0,45.9l3.67-6.52a26,26,0,0,0,6.83,4.19,17.7,17.7,0,0,0,6.6,1.35,9.35,9.35,0,0,0,4.69-1,3.29,3.29,0,0,0,1.76-3,2.72,2.72,0,0,0-1-2.26,8.36,8.36,0,0,0-2.81-1.34c-1.22-.37-2.71-.8-4.46-1.29a55.29,55.29,0,0,1-7.24-2.7,11.43,11.43,0,0,1-4.39-3.41,8.59,8.59,0,0,1-1.5-5.22,11.11,11.11,0,0,1,2-6.62,13,13,0,0,1,5.55-4.33,20.72,20.72,0,0,1,8.36-1.56,24,24,0,0,1,8,1.31,19,19,0,0,1,6.83,4.24l-4.13,6.45a22.13,22.13,0,0,0-5.62-3.49,14.67,14.67,0,0,0-5.48-1.09,11.76,11.76,0,0,0-3,.37,5.1,5.1,0,0,0-2.25,1.22,3.25,3.25,0,0,0-.86,2.4,2.91,2.91,0,0,0,.79,2.14,6.25,6.25,0,0,0,2.4,1.4c1.07.4,2.38.84,3.93,1.33a68.58,68.58,0,0,1,8,2.7,12.5,12.5,0,0,1,4.92,3.43,8.65,8.65,0,0,1,1.68,5.61,10.68,10.68,0,0,1-4.27,9Q24.68,52.42,17.47,52.42Z"/><path class="cls-2" d="M63.6,52.42a15.7,15.7,0,0,1-8.1-2.07A15,15,0,0,1,50,44.86V67.65h-10V12.75h8.77v6.74a16.62,16.62,0,0,1,5.7-5.37,15.65,15.65,0,0,1,7.88-2,17,17,0,0,1,7.31,1.56,18,18,0,0,1,5.85,4.34,19.57,19.57,0,0,1,3.86,6.41,22,22,0,0,1,1.35,7.72,23.21,23.21,0,0,1-2.21,10.23,18.53,18.53,0,0,1-6.07,7.31A15.15,15.15,0,0,1,63.6,52.42Zm-3.38-8.54a9.19,9.19,0,0,0,4.17-1,10.13,10.13,0,0,0,3.26-2.58,11.92,11.92,0,0,0,2.1-3.79,13.5,13.5,0,0,0,.75-4.45,12.45,12.45,0,0,0-.79-4.45A10.42,10.42,0,0,0,67.42,24a11.14,11.14,0,0,0-3.48-2.43,10.86,10.86,0,0,0-4.39-.88,9,9,0,0,0-2.81.48,11.4,11.4,0,0,0-2.82,1.35,10.53,10.53,0,0,0-2.32,2A9.41,9.41,0,0,0,50,27.13v9.13a16,16,0,0,0,2.52,3.88,11.26,11.26,0,0,0,3.56,2.75A9.28,9.28,0,0,0,60.22,43.88Z"/><path class="cls-3" d="M126.37,32.32a20.65,20.65,0,0,1-1.42,7.6,19.6,19.6,0,0,1-10.62,10.87,23.42,23.42,0,0,1-17.17,0,19.59,19.59,0,0,1-6.49-4.45,19.25,19.25,0,0,1-4.09-6.42,21,21,0,0,1-1.38-7.6,21.79,21.79,0,0,1,1.38-7.79,19.08,19.08,0,0,1,4-6.41,18.88,18.88,0,0,1,6.49-4.38,24.08,24.08,0,0,1,17.21,0A19.22,19.22,0,0,1,125,24.53,21.38,21.38,0,0,1,126.37,32.32Z"/><path class="cls-4" d="M156,49.72c-.9.41-1.94.82-3.12,1.24a25.26,25.26,0,0,1-3.82,1,20.81,20.81,0,0,1-4.16.41,13.46,13.46,0,0,1-5.18-1A8,8,0,0,1,136,48.38a9.93,9.93,0,0,1-1.39-5.54V20.4h-5.1V12.75h5.1V0h10.13V12.75H153V20.4h-8.25v19a3.53,3.53,0,0,0,3.82,3.84,8.38,8.38,0,0,0,3-.56c1-.37,1.83-.71,2.48-1Z"/></svg>